<?xml version="1.0" encoding="utf-8"?>
<!-- Generator: Adobe Illustrator 21.0.0, SVG Export Plug-In . SVG Version: 6.00 Build 0)  -->
<svg version="1.1" id="Layer_1" xmlns="http://www.w3.org/2000/svg" xmlns:xlink="http://www.w3.org/1999/xlink" x="0px" y="0px"
	 viewBox="0 0 106.5 106.4" style="enable-background:new 0 0 106.5 106.4;" xml:space="preserve">
<style type="text/css">
	.st0{fill:#31B3A4;}
</style>
<title>4BACDB8A-C3A9-4661-8C76-9FF63EABC5D6</title>
<desc>Created with sketchtool.</desc>
<g id="now">
	<g id="trial-complete" transform="translate(-686.000000, -302.000000)">
		<g id="modal" transform="translate(430.000000, 252.000000)">
			<g id="beamery-vertical-secondary" transform="translate(256.000000, 50.000000)">
				<path id="Shape" class="st0" d="M53.3,0L53.3,0C24,0,0,24.3,0,53.9c0,25.1,17.1,46.3,40.1,52.2c4.1,1.1,8-2.2,8-6.4V79.4
					c0-4.8-5.7-7.2-9.1-3.8L39,75.7c-1.8,1.8-4.7,2.3-6.8,0.8c-2.6-1.9-2.9-5.7-0.7-7.9l0.3-0.3c3.4-3.4,1-9.2-3.8-9.2H15.7
					c-2.5,0-4.9-1.7-5.3-4.3c-0.5-3.2,1.9-6,5-6h12.7c4.8,0,7.1-5.8,3.8-9.2l-8.7-8.8c-1.8-1.8-2.3-4.8-0.8-6.9
					c1.9-2.7,5.6-2.9,7.8-0.7l9,9.1c3.4,3.4,9.1,1,9.1-3.8V28c0-3.1,2.8-5.6,6-5.1c2.5,0.4,4.2,2.8,4.2,5.4v0c0,4.8,5.7,7.2,9.1,3.8
					l8.7-8.8c1.8-1.8,4.7-2.3,6.8-0.8c2.6,1.9,2.9,5.7,0.7,7.9l-9,9.1c-3.4,3.4-1,9.2,3.8,9.2H77c2.5,0,4.9,1.7,5.3,4.2
					c0.6,3.3-1.9,6.1-5,6.1h1.1c-4.8,0-7.1,5.8-3.8,9.2l9.8,9.9c1.8,1.8,2.3,4.8,0.8,6.9c-1.9,2.7-5.6,2.9-7.8,0.7l-10-10.1
					c-3.4-3.4-9.1-1-9.1,3.8v20.3c0,4.3,3.9,7.5,8,6.4c23-6,40.2-27.2,40.2-52.2C106.5,24.3,82.6,0,53.3,0L53.3,0L53.3,0z M58.3,11
					c0,2.8-2.3,5.1-5.1,5.1s-5.1-2.3-5.1-5.1s2.3-5.1,5.1-5.1S58.3,8.2,58.3,11L58.3,11L58.3,11z M100.1,54.3c0,2.8-2.3,5.1-5.1,5.1
					S90,57.1,90,54.3c0-2.8,2.3-5.1,5.1-5.1S100.1,51.5,100.1,54.3L100.1,54.3L100.1,54.3z M28.6,83.3c0,2.8-2.3,5.1-5.1,5.1
					c-2.8,0-5.1-2.3-5.1-5.1c0-2.8,2.3-5.1,5.1-5.1C26.3,78.2,28.6,80.5,28.6,83.3L28.6,83.3L28.6,83.3z"/>
			</g>
		</g>
	</g>
</g>
</svg>